<svg height="20" viewBox="0 0 18 20" width="18" xmlns="http://www.w3.org/2000/svg"><path d="m19.4350881 7485h-.00714-8.6159687l.2060407 2h8.2120473c-.1203604 1.752-.4845016 5.464-.618122 7.153l-4.6124554 1.298v.004l-.0102.005-4.61551542-1.624-.31620105-3.836h2.26236757l.1601405 2.063 2.5132884.937h.00612l2.5092084-.9.2580608-3.1h-7.81016601c-.03774013-.401-.52326175-5.608-.60792203-6h11.28837764c-.0632402.66-.1275004 1.338-.2019607 2zm-14.4350881-6 1.63812546 18.148 7.35116454 1.852 7.3705445-1.889 1.6401655-18.111z" fill-rule="evenodd" transform="translate(-5 -7479)"/></svg>